<?xml version="1.0" encoding="UTF-8"?>
<svg id="Warstwa_1" data-name="Warstwa 1" xmlns="http://www.w3.org/2000/svg" viewBox="0 0 475.19 484.44">
  <defs>
    <style>
      .cls-1 {
        fill: #fff;
        stroke: #ededed;
        stroke-miterlimit: 10;
      }
    </style>
  </defs>
  <path class="cls-1" d="M439.39,353.06s-12.73,11.72-67.19-46.56c0,0-40.85-35.77-72.03-32.84,0,0-6.23-20.84,48.83-25.74,55.05-4.89,90.89,57.42,90.89,57.42,0,0,14.77,37.71-.49,47.71Z"/>
  <path class="cls-1" d="M296.77,281.94s12.73-11.72,67.19,46.56c0,0,40.85,35.77,72.03,32.84,0,0,6.23,20.84-48.83,25.74-55.05,4.89-90.89-57.42-90.89-57.42,0,0-14.77-37.71.49-47.71Z"/>
  <path class="cls-1" d="M7.74,320.7s1.16,9.8,44.15-17.85c0,0,56.27-24.83,85.88-30.15,29.6-5.33-6.2-33.81-6.2-33.81,0,0-26.73-10.67-65.43,2.17-38.7,12.84-56.94,37.03-56.94,37.03,0,0-18.55,28.05-1.45,42.61Z"/>
  <path class="cls-1" d="M226.08,154.24s9.49,2.71.56-47.62c0,0-1.2-61.49,5.31-90.86,6.51-29.36-33.59-7.33-33.59-7.33,0,0-20.16,20.54-23.24,61.21-3.08,40.66,12.2,66.82,12.2,66.82,0,0,18.72,27.93,38.76,17.78Z"/>
  <path class="cls-1" d="M153.36,277.05s-1.16-9.8-44.15,17.85c0,0-56.27,24.83-85.88,30.15-29.6,5.33,6.2,33.81,6.2,33.81,0,0,26.73,10.67,65.43-2.17,38.7-12.84,56.94-37.03,56.94-37.03,0,0,18.55-28.05,1.45-42.61Z"/>
  <path class="cls-1" d="M241.99,3.06s-9.49-2.71-.56,47.62c0,0,1.2,61.49-5.31,90.86-6.51,29.36,33.59,7.33,33.59,7.33,0,0,20.16-20.54,23.24-61.21s-12.2-66.82-12.2-66.82c0,0-18.72-27.93-38.76-17.78Z"/>
  <path class="cls-1" d="M150.77,178.26s-13.04,11.37-65.9-48.36c0,0-39.87-36.86-71.12-34.77,0,0-5.66-21,49.5-24.41,55.16-3.4,89.3,59.85,89.3,59.85,0,0,13.75,38.1-1.78,47.68Z"/>
  <path class="cls-1" d="M10.12,103.32s13.04-11.37,65.9,48.36c0,0,39.87,36.86,71.12,34.77,0,0,5.66,21-49.5,24.41-55.16,3.4-89.3-59.85-89.3-59.85,0,0-13.75-38.1,1.78-47.68Z"/>
  <path class="cls-1" d="M461.21,105.57s-22.19-40.28-84.37-19.86c-62.17,20.42-68.03,72.78-68.03,72.78,0,0,0,.02,0,.07-1.02,7.75,7.25,13.18,13.44,8.81,6.67-4.71,16.68-10,29.65-11.82,1.06-.15,2.14-.07,3.17.2,4.42,1.15,18.89,3.45,37.75-8.81.33-.22.66-.46.96-.72,2.91-2.5,20.42-16.91,31.52-11.61,0,0,14.1,6.62,25.48-3.49.65-.58,1.35-1.09,2.13-1.47,3.88-1.91,16.34-9.41,8.29-24.06Z"/>
  <path class="cls-1" d="M244.54,483.1s44.31-7.59,47.5-73.63c3.19-66.03-42.29-89.19-42.29-89.19,0,0-.02-.01-.06-.03-6.68-3.58-14.5,2.47-12.69,9.83,1.94,7.93,3.25,19.23.37,32.19-.23,1.06-.68,2.06-1.29,2.95-2.59,3.82-9.73,16.82-5.19,38.89.08.39.19.78.32,1.16,1.25,3.61,8.21,25.11-.47,33.91,0,0-10.93,11.2-5.73,25.43.3.82.52,1.66.59,2.52.37,4.33,2.83,18.72,18.94,15.97Z"/>
  <path class="cls-1" d="M322.19,197.18s22.19,40.28,84.37,19.86c62.17-20.42,68.03-72.78,68.03-72.78,0,0,0-.02,0-.07,1.02-7.75-7.25-13.18-13.44-8.81-6.67,4.71-16.68,10-29.65,11.82-1.06.15-2.14.07-3.17-.2-4.42-1.15-18.89-3.45-37.75,8.81-.33.22-.66.46-.96.72-2.91,2.5-20.42,16.91-31.52,11.61,0,0-14.1-6.62-25.48,3.49-.65.58-1.35,1.09-2.13,1.47-3.88,1.91-16.34,9.41-8.29,24.06Z"/>
  <path class="cls-1" d="M209.96,320.03s-44.31,7.59-47.5,73.63c-3.19,66.03,42.29,89.19,42.29,89.19,0,0,.02.01.06.03,6.68,3.58,14.5-2.47,12.69-9.83-1.94-7.93-3.25-19.23-.37-32.19.23-1.06.68-2.06,1.29-2.95,2.59-3.82,9.73-16.82,5.19-38.89-.08-.39-.19-.78-.32-1.16-1.25-3.61-8.21-25.11.47-33.91,0,0,10.93-11.2,5.73-25.43-.3-.82-.52-1.66-.59-2.52-.37-4.33-2.83-18.72-18.94-15.97Z"/>
</svg>